HIERARCHY
ROOT Hips
{
  OFFSET 9.15893 95.3657 -42.7454
  CHANNELS 6 Xposition Yposition Zposition Zrotation Xrotation Yrotation
  JOINT RightUpLeg
  {
    OFFSET -8.9458 -8.66707 0.101652
    CHANNELS 3 Zrotation Xrotation Yrotation
    JOINT RightLeg
    {
      OFFSET 0 -44.4227 1.3727
      CHANNELS 3 Zrotation Xrotation Yrotation
      JOINT RightFoot
      {
        OFFSET 0.253549 -42.0924 -1.46059
        CHANNELS 3 Zrotation Xrotation Yrotation
        JOINT RightToes
        {
          OFFSET 0.04 -4.41509 8.4991
          CHANNELS 3 Zrotation Xrotation Yrotation
          End Site
          {
            OFFSET -0.08 -0.137448 9.77979
          }
        }
      }
    }
  }
  JOINT Spine
  {
    OFFSET 0 11.8905 0
    CHANNELS 3 Zrotation Xrotation Yrotation
    JOINT Spine1
    {
      OFFSET 0 25.6574 0.127663
      CHANNELS 3 Zrotation Xrotation Yrotation
      JOINT HEad
      {
        OFFSET 0 8.73416 0.011341
        CHANNELS 3 Zrotation Xrotation Yrotation
        End Site
        {
          OFFSET -0.29 12.7742 2.51395
        }
      }
      JOINT LeftShoulder1
      {
        OFFSET 8.99 -0.362252 -0.22
        CHANNELS 3 Zrotation Xrotation Yrotation
        JOINT LeftArm
        {
          OFFSET 10.2827 -0.00338 0.322123
          CHANNELS 3 Zrotation Xrotation Yrotation
          JOINT LeftForeArm
          {
            OFFSET 32.7669 0.099144 -1.42434
            CHANNELS 3 Zrotation Xrotation Yrotation
            JOINT LeftHand
            {
              OFFSET 27.5643 0.085362 1.02216
              CHANNELS 3 Zrotation Xrotation Yrotation
              End Site
              {
                OFFSET 16.7443 -0.6 1.50291
              }
            }
          }
        }
      }
      JOINT RightShoulder
      {
        OFFSET -8.99 -0.362252 -0.22
        CHANNELS 3 Zrotation Xrotation Yrotation
        JOINT RightArm
        {
          OFFSET -10.2827 -0.00338 0.322123
          CHANNELS 3 Zrotation Xrotation Yrotation
          JOINT RightForeArm
          {
            OFFSET -32.8971 0.099144 -1.42434
            CHANNELS 3 Zrotation Xrotation Yrotation
            JOINT RightHand
            {
              OFFSET -27.4921 0.085362 1.02216
              CHANNELS 3 Zrotation Xrotation Yrotation
              End Site
              {
                OFFSET -16.6312 -0.6 1.50291
              }
            }
          }
        }
      }
    }
  }
  JOINT LeftUpLeg
  {
    OFFSET 8.9458 -8.66707 0.101652
    CHANNELS 3 Zrotation Xrotation Yrotation
    JOINT LeftLeg
    {
      OFFSET 0 -44.4227 1.3727
      CHANNELS 3 Zrotation Xrotation Yrotation
      JOINT LeftFoot
      {
        OFFSET -0.253549 -42.0924 -1.46059
        CHANNELS 3 Zrotation Xrotation Yrotation
        JOINT LeftToes
        {
          OFFSET -0.04 -4.41509 8.4991
          CHANNELS 3 Zrotation Xrotation Yrotation
          End Site
          {
            OFFSET 0.08 -0.047448 9.77979
          }
        }
      }
    }
  }
}
MOTION
Frames:	10
Frame Time:	0.0166667
7.39946 97.2997 -45.0156 18.5212 -1.61659 85.3419 -28.8035 3.12667 19.91 42.0707 10.5834 -44.4296 -25.7992 -2.15523 -1.47545 0.0462048 0.000533403 0.662642 -20.8023 23.5723 19.9954 0.0434896 0.0851599 -0.0744911 5.90874 -0.708088 3.66676 -3.18055e-015 1.19271e-015 -7.95139e-016 -134.112 -63.2406 -102.478 -73.0295 30.6073 -41.7871 -1.27286 31.5524 -16.352 21.4365 8.26384 -8.01318 102.969 -4.31646 71.1087 33.6842 48.1079 70.9855 18.0965 20.9181 3.87296 27.5581 8.41256 -12.09 -38.6958 16.0045 76.4028 -23.624 -0.477925 -0.476543 -1.3333e-009 1.56019e-007 -4.86261e-009 
7.15923 97.5653 -45.2589 17.9966 -0.939086 86.261 -27.965 4.5302 20.9755 39.1873 7.93161 -45.6386 -25.4283 -2.47485 -1.46724 0.0462048 0.000533403 0.662642 -20.0595 27.3353 17.828 0.0354496 0.0684599 -0.0794709 1.99438 0.99387 5.14356 6.36111e-015 -1.98785e-015 -7.95139e-016 -145.357 -61.3603 -112.964 -75.9453 42.7557 -38.8652 -0.546055 49.3148 -16.975 19.509 5.5047 -6.70825 102.161 -3.85473 70.2393 30.4923 47.2966 72.0644 17.5138 21.4266 10.8739 25.1062 6.65903 -12.5633 -34.7013 17.5961 69.6868 -25.7718 -0.555146 -0.444383 -1.3333e-009 1.56019e-007 -4.86262e-009 
6.86217 97.8861 -45.5854 17.4812 -0.395926 87.0691 -27.2529 5.61534 21.8923 36.5954 5.52918 -46.9959 -25.1901 -2.77387 -1.49237 0.0462048 0.000533403 0.662642 -18.7013 30.1882 15.0964 -0.0158301 -0.01669 -0.0116596 -2.13767 4.47547 6.60174 1.59028e-015 9.93923e-016 3.97569e-016 -154.265 -59.672 -121.632 -79.19 54.4866 -35.9468 2.58305 28.8394 -15.6222 17.769 3.63185 -5.45321 101.636 -3.41684 69.7063 28.1425 46.9531 73.1518 18.1381 21.3465 8.17535 22.6817 5.17399 -13.0809 -30.3338 18.644 61.6144 -27.7442 -0.595509 -0.410974 -1.3333e-009 1.56019e-007 -4.8626e-009 
6.54996 98.2239 -46.051 16.9779 -0.00396561 87.759 -26.6703 6.43589 22.6827 34.3284 3.37289 -48.4108 -25.0571 -3.04878 -1.5413 0.0462048 0.000533403 0.662642 -16.9052 32.1022 12.0016 -0.01913 -0.01665 -0.00429953 -6.45276 9.40394 8.17085 3.18055e-015 2.36057e-015 -0 -161.818 -58.3066 -129.294 -83.6856 66.044 -32.0951 12.1203 25.4687 -14.4352 16.1932 2.48597 -4.15002 101.295 -3.03161 69.4127 26.3412 46.9215 74.285 17.7016 21.6004 11.4442 20.3974 3.97304 -13.6602 -26.6423 19.3909 54.9338 -29.442 -0.506064 -0.379256 -1.3333e-009 1.56019e-007 -4.86262e-009 
6.26671 98.5465 -46.6705 16.4804 0.239395 88.3237 -26.2132 7.05026 23.3544 32.3837 1.47153 -49.7971 -24.9809 -3.2895 -1.60295 0.0462048 0.000533403 0.662642 -14.8914 33.1175 8.77063 -0.0191289 -0.01018 -0.000388841 -10.656 14.2212 10.0145 -1.59028e-015 1.26725e-015 -8.94531e-016 -168.207 -57.3606 -135.967 -89.4178 71.8746 -26.7843 13.8959 13.5202 -12.7208 14.8614 2.0366 -2.87073 101.091 -2.7556 69.3103 24.89 47.0727 75.3076 17.8092 21.4924 9.22368 18.3182 2.98366 -14.2551 -23.5628 19.9056 49.5922 -30.8315 -0.377363 -0.324805 -1.3333e-009 1.56019e-007 -4.86262e-009 
6.05728 98.8266 -47.4407 15.9819 0.350315 88.7642 -25.888 7.50411 23.9085 30.7572 -0.167841 -51.0906 -24.9139 -3.49048 -1.66629 0.0462048 0.000533403 0.662642 -12.8725 33.3217 5.61267 -0.0191288 -0.00349997 -0.000388841 -14.7233 18.8237 12.1216 3.18055e-015 -3.52843e-015 -0 -173.678 -56.8364 -141.708 -94.8577 74.4059 -21.6223 16.9514 14.5537 -11.235 13.7604 2.19737 -1.66461 100.997 -2.60718 69.3458 23.6869 47.335 76.2866 17.532 21.688 10.766 16.4873 2.14796 -14.8315 -21.0565 20.2571 45.5082 -31.9206 -0.243748 -0.275281 -1.3333e-009 1.56019e-007 -4.86261e-009 
5.95493 99.0433 -48.3394 15.4793 0.352015 89.0801 -25.6676 7.76681 24.326 29.4362 -1.38787 -52.294 -24.7527 -3.70317 -1.71323 0.0462048 0.000533403 0.662642 -11.0249 32.8514 2.70213 -0.0191288 0.00317003 -0.000388841 -18.6294 23.1044 14.458 -1.03451e-031 2.48481e-015 2.38542e-015 -178.394 -56.7054 -146.619 -98.239 75.1928 -18.4058 17.1137 9.58329 -10.7002 12.8698 2.8555 -0.52 101.004 -2.61771 69.5014 22.6557 47.6442 77.1524 17.4112 21.5941 9.21155 14.9252 1.42059 -15.3617 -19.0929 20.5216 42.5741 -32.7437 -0.122261 -0.237304 -1.3333e-009 1.56019e-007 -4.86262e-009 
5.97413 99.1876 -49.3333 14.9743 0.269006 89.2747 -25.5039 7.7593 24.578 28.4164 -1.95929 -53.4419 -24.38 -4.00382 -1.72765 0.0462048 0.000533403 0.662642 -9.45848 31.8459 0.151115 -0.0191287 0.00931002 -0.000388841 -22.3395 26.9951 16.971 1.59028e-015 7.95139e-016 2.38542e-015 177.64 -56.9386 -150.696 -99.6962 75.1612 -16.9507 18.0851 11.4925 -10.0484 12.1749 3.9117 0.531453 101.088 -2.78166 69.7464 21.7681 47.9727 77.9581 17.2359 21.719 9.98499 13.6338 0.768764 -15.8292 -17.6365 20.7612 40.6686 -33.3433 -0.0222094 -0.211974 -1.3333e-009 1.56019e-007 -4.86262e-009 
6.09571 99.2957 -50.3982 14.4693 0.126555 89.3568 -25.2497 7.37925 24.6156 27.5178 -1.5861 -54.5952 -23.6118 -4.41321 -1.66965 0.0462048 0.000533403 0.662642 -8.22388 30.4365 -1.98624 -0.0191287 0.00931002 -0.000388841 -25.8044 30.4626 19.5876 2.38542e-015 1.88845e-015 -1.59028e-015 174.407 -57.5111 -153.97 -100.219 74.7829 -16.2719 17.8313 9.60359 -10.0095 11.6706 5.27715 1.48493 101.227 -3.09796 70.0701 21.0117 48.2882 78.6602 17.0572 21.5901 9.01635 12.6324 0.181625 -16.2304 -17.3322 20.5044 41.9438 -32.6817 -0.0385475 -0.23839 -1.3333e-009 1.56019e-007 -4.86262e-009 
6.3009 99.3606 -51.5201 13.9716 -0.0452657 89.3381 -25.6548 7.34286 23.6447 27.2935 -1.613 -54.2095 -23.2519 -4.42888 -1.6298 0.0462048 0.000533403 0.662642 -7.31599 29.1432 -3.66083 -0.0191287 0.00931002 -0.000388841 -28.8024 33.1743 21.9444 7.95139e-016 1.98785e-016 -1.59028e-015 172.01 -58.0093 -156.359 -100.041 74.2994 -16.1636 18.0796 11.4406 -9.75934 11.3577 6.47806 2.31654 101.398 -3.51668 70.4399 20.3779 48.5904 79.31 16.9845 21.6282 9.44951 11.9368 -0.279587 -16.5623 -17.8341 19.9588 45.7079 -31.4195 -0.177555 -0.298742 -1.33329e-009 1.56019e-007 -4.86262e-009 
